<?xml version="1.0" encoding="UTF-8"?>
<!DOCTYPE svg PUBLIC "-//W3C//DTD SVG 1.1//EN" "http://www.w3.org/Graphics/SVG/1.1/DTD/svg11.dtd">
<!-- Creator: CorelDRAW 2021 (64 Bit) -->
<svg xmlns="http://www.w3.org/2000/svg" xml:space="preserve" width="297mm" height="30mm" version="1.1" style="shape-rendering:geometricPrecision; text-rendering:geometricPrecision; image-rendering:optimizeQuality; fill-rule:evenodd; clip-rule:evenodd"
viewBox="0 0 29700 3000">
 <defs>
  <style type="text/css">
   <![CDATA[
    .fil0 {fill:white;fill-rule:nonzero}
   ]]>
  </style>
 </defs>
 <g id="Camada_x0020_1">
  <metadata id="CorelCorpID_0Corel-Layer"/>
  <path class="fil0" d="M2032.88 290.58c580.82,0 1017.04,98.79 1308.64,296.36 291.6,197.58 437.4,509.41 437.4,935.51 0,428.48 -145.2,741.51 -435.62,939.08 -290.41,197.58 -727.22,296.37 -1310.42,296.37 -585.59,0 -1023,-98.79 -1312.22,-296.37 -289.22,-197.57 -433.83,-510.6 -433.83,-939.08 0,-426.1 145.2,-737.93 435.62,-935.51 290.41,-197.57 727.22,-296.36 1310.43,-296.36zm0 1846.02c185.67,0 342.78,-7.73 471.32,-23.21 128.54,-15.47 232.69,-45.82 312.43,-91.05 79.75,-45.22 137.47,-107.71 173.18,-187.46 35.71,-79.74 53.56,-183.88 53.56,-312.43 0,-128.54 -17.85,-232.69 -53.56,-312.43 -35.71,-79.74 -93.43,-141.64 -173.18,-185.67 -79.74,-44.04 -183.89,-73.8 -312.43,-89.27 -128.54,-15.47 -285.65,-23.21 -471.32,-23.21 -185.68,0 -342.79,7.74 -471.33,23.21 -128.54,15.47 -232.69,45.23 -312.43,89.27 -79.75,44.03 -137.47,105.93 -173.18,185.67 -35.71,79.74 -53.56,183.89 -53.56,312.43 0,128.55 17.85,232.69 53.56,312.43 35.71,79.75 93.43,142.24 173.18,187.46 79.74,45.23 183.89,75.58 312.43,91.05 128.54,15.48 285.65,23.21 471.33,23.21zm4816.8 -646.28c104.74,30.94 193.41,91.64 266.02,182.1 72.6,90.46 108.9,207.1 108.9,349.92 0,99.98 -15.47,192.22 -46.42,276.73 -30.94,84.5 -83.31,157.7 -157.11,219.59 -73.79,61.89 -173.17,110.69 -298.15,146.4 -124.97,35.71 -281.48,53.56 -469.54,53.56l-2099.54 0 0 -1453.25 2113.83 0c54.75,0 102.95,-11.31 144.61,-33.93 41.65,-22.61 62.48,-64.86 62.48,-126.75 0,-59.51 -21.42,-99.98 -64.27,-121.41 -42.85,-21.42 -90.45,-32.13 -142.82,-32.13l-2113.83 0 499.89 -621.29 1581.8 0c142.83,0 271.96,13.68 387.42,41.06 115.45,27.37 214.23,69.03 296.36,124.97 82.12,55.94 145.21,124.97 189.24,207.1 44.04,82.12 66.06,177.94 66.06,287.44 0,71.41 -9.52,134.49 -28.56,189.24 -19.05,54.75 -43.45,102.95 -73.2,144.61 -29.76,41.66 -64.27,76.18 -103.55,103.55 -39.28,27.38 -79.15,48.2 -119.62,62.49zm-1953.14 285.65l0 328.5 1360.41 0c80.94,0 139.26,-14.28 174.97,-42.85 35.7,-28.56 53.56,-70.22 53.56,-124.97 0,-52.37 -17.86,-92.24 -53.56,-119.62 -35.71,-27.37 -94.03,-41.06 -174.97,-41.06l-1360.41 0zm6087.96 942.65l-989.07 0 -532.03 -632.01 -1135.47 0 0 632.01 -739.12 0 0 -1221.16 2078.12 0c114.26,0 210.67,-23.81 289.22,-71.42 78.55,-47.6 117.83,-113.07 117.83,-196.38 0,-92.84 -35.7,-162.47 -107.12,-208.88 -71.41,-46.42 -171.39,-69.63 -299.93,-69.63l-2078.12 0 482.04 -621.29 1535.38 0c135.68,0 276.13,12.49 421.33,37.49 145.21,24.99 277.32,69.62 396.35,133.9 119.02,64.27 217.21,151.15 294.57,260.65 77.37,109.5 116.05,249.95 116.05,421.34 0,92.84 -14.28,180.91 -42.85,264.23 -28.56,83.31 -69.62,158.3 -123.18,224.95 -53.56,66.65 -119.03,123.19 -196.39,169.61 -77.36,46.41 -164.85,79.14 -262.44,98.19 40.46,30.94 85.69,70.22 135.68,117.83 49.99,47.61 116.64,113.07 199.96,196.39l439.19 464.18zm1274.71 0l446.34 -614.15 599.87 0c71.41,0 145.8,0 223.16,0 77.37,0 144.61,2.38 201.74,7.14 -33.32,-42.85 -72.01,-97 -116.04,-162.47 -44.04,-65.46 -86.29,-126.75 -126.76,-183.88l-428.48 -632.01 -1121.18 1585.37 -874.81 0 1531.81 -2160.24c49.99,-69.04 113.07,-130.93 189.24,-185.68 76.17,-54.75 172.58,-82.12 289.22,-82.12 111.88,0 205.32,25.59 280.3,76.77 74.98,51.18 138.66,114.85 191.03,191.03l1492.53 2160.24 -2777.97 0zm7562.64 -1492.53c0,133.3 -26.18,254.11 -78.55,362.42 -52.37,108.31 -129.14,200.55 -230.31,276.72 -101.16,76.18 -224.35,135.69 -369.56,178.54 -145.21,42.84 -310.65,64.27 -496.32,64.27l-1249.73 0 0 610.58 -735.55 0 0 -1221.16 2056.69 0c114.26,0 202.94,-25 266.02,-74.99 63.08,-49.99 94.62,-116.64 94.62,-199.95 0,-83.32 -31.54,-149.37 -94.62,-198.17 -63.08,-48.8 -151.76,-73.2 -266.02,-73.2l-2056.69 0 489.18 -621.29 1499.67 0c185.68,0 351.12,22.01 496.32,66.05 145.21,44.04 267.8,105.34 367.78,183.89 99.98,78.55 176.15,172.58 228.52,282.08 52.37,109.5 78.55,230.9 78.55,364.21zm2963.64 878.38l-478.46 614.15 -2110.26 0 0 -2388.76 739.13 0 0 1774.61 1849.59 0zm1139.03 614.15l446.34 -614.15 599.87 0c71.41,0 145.8,0 223.16,0 77.37,0 144.61,2.38 201.74,7.14 -33.32,-42.85 -72.01,-97 -116.04,-162.47 -44.04,-65.46 -86.29,-126.75 -126.76,-183.88l-428.48 -632.01 -1121.18 1585.37 -874.81 0 1531.81 -2160.24c49.99,-69.04 113.07,-130.93 189.24,-185.68 76.17,-54.75 172.58,-82.12 289.22,-82.12 111.88,0 205.32,25.59 280.3,76.77 74.98,51.18 138.66,114.85 191.03,191.03l1492.53 2160.24 -2777.97 0zm5616.63 -2388.76l-1417.54 1599.65 0 789.11 -742.7 0 0 -792.68 -1456.82 -1596.08 949.79 0 571.3 664.14c19.05,21.42 44.04,49.39 74.99,83.91 30.94,34.51 63.08,70.81 96.4,108.9 33.33,38.09 64.27,73.79 92.84,107.12 28.57,33.33 48.8,58.32 60.7,74.98 23.81,-33.32 58.32,-78.55 103.55,-135.68 45.23,-57.13 110.69,-138.07 196.39,-242.8l542.73 -660.57 928.37 0z"/>
 </g>
</svg>
